<svg width="34" height="34" viewBox="0 0 34 34" fill="none" xmlns="http://www.w3.org/2000/svg">
<g clip-path="url(#clip0_10_524)">
<path d="M24.6881 19.3563L21.1787 15.9968L22.4934 11.3442C22.7359 10.4999 21.8317 9.77317 21.0592 10.1915L16.792 12.4837L12.7705 9.77742C12.0407 9.28067 11.071 9.91252 11.2298 10.7843L12.0982 15.5621L8.28381 18.5519C7.58914 19.097 7.88801 20.2096 8.76857 20.3272L13.5694 20.9785L15.2316 25.5348C15.5358 26.3694 16.6867 26.4221 17.0696 25.6264L19.1755 21.2506L24.0282 21.0711C24.9138 21.0388 25.3301 19.9622 24.6881 19.3563ZM14.741 19.5209L10.3882 18.9347L13.8489 16.2252L13.0655 11.9005L16.7175 14.3483L20.5672 12.2722L19.3691 16.4924L22.5449 19.5326L18.153 19.6974L16.2511 23.6599L14.741 19.5209Z" fill="#3BD9CF"/>
</g>
<defs>
<clipPath id="clip0_10_524">
<rect width="24" height="24" fill="white" transform="translate(15.0356) rotate(38.7909)"/>
</clipPath>
</defs>
</svg>
